<?xml version="1.0" standalone="no"?>
<!DOCTYPE svg PUBLIC "-//W3C//DTD SVG 20010904//EN"
 "http://www.w3.org/TR/2001/REC-SVG-20010904/DTD/svg10.dtd">
<svg version="1.0" xmlns="http://www.w3.org/2000/svg"
 width="180.000000pt" height="180.000000pt" viewBox="0 0 180.000000 180.000000"
 preserveAspectRatio="xMidYMid meet">
<metadata>
Created by potrace 1.14, written by Peter Selinger 2001-2017
</metadata>
<g transform="translate(0.000000,180.000000) scale(0.100000,-0.100000)"
fill="#000000" stroke="none">
<path d="M810 1790 c0 -5 5 -10 11 -10 5 0 7 5 4 10 -3 6 -8 10 -11 10 -2 0
-4 -4 -4 -10z"/>
<path d="M846 1789 c7 -11 -9 -18 -47 -21 -19 -1 -37 -7 -41 -13 -5 -6 -8 -6
-8 3 0 6 -7 12 -16 12 -8 0 -13 -4 -10 -8 3 -5 -1 -9 -9 -9 -8 0 -15 5 -15 11
0 6 -4 4 -9 -4 -6 -8 -8 -17 -5 -21 2 -4 -4 -6 -13 -4 -10 1 -22 0 -28 -3 -13
-8 -45 -10 -40 -2 2 3 -5 6 -15 6 -11 0 -16 -6 -13 -14 4 -9 -2 -12 -21 -8
-15 3 -24 1 -21 -5 4 -5 10 -7 14 -5 4 3 8 -1 8 -9 0 -8 -5 -11 -11 -8 -19 12
-45 10 -50 -4 -3 -7 -11 -13 -18 -13 -9 0 -8 3 2 10 8 5 10 10 4 10 -18 0 -24
-13 -12 -27 9 -11 7 -12 -7 -7 -14 6 -16 4 -10 -7 7 -11 6 -12 -6 -2 -19 15
-54 -8 -37 -25 8 -8 5 -9 -12 -5 -15 4 -21 2 -16 -5 3 -6 2 -13 -3 -16 -5 -4
-13 -1 -17 5 -5 8 -3 9 6 4 9 -5 11 -4 6 4 -11 17 -37 -6 -29 -26 4 -11 2 -14
-5 -9 -7 4 -12 1 -12 -8 0 -9 -5 -16 -11 -16 -5 0 -7 6 -3 13 5 8 2 7 -10 -2
-13 -11 -14 -16 -4 -22 9 -6 7 -9 -8 -9 -25 0 -44 -18 -44 -41 0 -10 -4 -21
-10 -24 -6 -3 -7 1 -4 12 3 11 0 9 -8 -5 -8 -12 -18 -19 -22 -15 -5 4 -3 -2 3
-14 14 -27 9 -29 -15 -5 -15 15 -17 15 -12 1 4 -9 1 -23 -5 -30 -8 -8 -5 -8 7
1 18 14 18 14 6 -7 -8 -12 -17 -20 -20 -18 -4 3 -13 -8 -21 -23 -8 -15 -23
-35 -34 -45 -11 -10 -15 -16 -8 -13 6 4 14 2 17 -3 3 -5 -4 -11 -15 -14 -14
-4 -18 -10 -13 -19 14 -21 13 -35 -2 -35 -10 0 -11 4 -2 14 8 11 7 12 -5 7 -8
-3 -18 -12 -21 -20 -3 -8 -2 -12 3 -9 5 3 12 1 15 -4 3 -5 -1 -12 -10 -15 -15
-6 -15 -8 2 -27 18 -20 18 -20 -7 -10 -19 7 -26 6 -26 -4 0 -7 5 -11 12 -9 6
3 11 -4 11 -15 0 -15 -3 -17 -13 -9 -8 6 -16 8 -20 4 -3 -3 -1 -6 5 -6 7 0 12
-7 12 -15 0 -8 -4 -15 -9 -15 -10 0 -19 -40 -13 -58 2 -7 8 -10 13 -6 5 3 9 3
9 -1 0 -3 -10 -10 -22 -15 -17 -6 -19 -9 -6 -9 11 -1 15 -6 12 -16 -5 -11 -10
-13 -19 -5 -8 7 -12 5 -12 -5 0 -8 4 -12 9 -9 4 3 8 1 8 -5 0 -6 8 -8 18 -5
14 5 15 4 2 -5 -8 -6 -11 -11 -6 -11 6 0 5 -5 -2 -12 -9 -9 -8 -16 6 -32 13
-16 13 -18 1 -8 -9 6 -18 9 -22 6 -8 -8 -3 18 6 32 4 7 1 14 -6 17 -9 3 -12
-9 -12 -44 0 -26 4 -51 8 -55 12 -12 8 -26 -5 -18 -7 4 -5 -2 4 -13 10 -11 18
-25 18 -31 0 -6 -8 -9 -18 -6 -14 5 -14 4 -2 -4 10 -8 18 -7 28 0 11 9 11 7 2
-14 -9 -18 -9 -31 -1 -45 7 -15 7 -24 -2 -33 -7 -7 -7 -10 -2 -7 6 3 16 -3 23
-14 14 -21 3 -26 -16 -7 -7 7 -6 -2 3 -20 9 -18 20 -30 25 -27 5 3 12 0 16 -6
4 -8 3 -9 -4 -5 -7 4 -12 3 -12 -3 0 -5 6 -12 13 -14 8 -4 8 -6 -2 -6 -11 -1
-10 -4 4 -14 14 -11 15 -16 5 -22 -9 -6 -11 -4 -5 5 5 9 4 11 -4 6 -18 -11 -3
-25 21 -21 16 3 19 2 10 -7 -8 -8 -7 -15 6 -25 9 -8 12 -12 5 -9 -6 4 -15 1
-19 -5 -4 -7 -3 -9 3 -6 14 8 46 -32 39 -49 -3 -9 -1 -12 4 -9 6 3 10 1 10 -4
0 -6 6 -10 13 -8 6 1 11 -4 9 -11 -1 -7 5 -15 13 -18 8 -4 15 -15 15 -26 0
-14 5 -18 15 -14 13 4 13 2 5 -14 -15 -28 -12 -37 5 -14 14 18 14 18 10 -4 -4
-20 -2 -22 10 -12 12 10 15 9 15 -9 0 -11 5 -21 11 -21 5 0 7 -6 3 -12 -5 -8
0 -7 11 2 17 14 18 13 13 -8 -4 -12 -2 -20 2 -17 5 3 14 -3 20 -12 9 -15 10
-14 5 7 -5 19 -4 22 4 10 6 -8 11 -24 11 -35 0 -15 2 -17 9 -6 10 16 31 6 31
-14 0 -7 12 -16 28 -20 15 -3 32 -15 37 -27 6 -12 18 -23 28 -24 10 -1 15 2
11 9 -3 7 1 4 10 -7 8 -10 22 -16 31 -13 8 4 15 2 15 -2 0 -5 -5 -11 -12 -13
-7 -3 -5 -7 6 -11 10 -4 15 -3 11 3 -3 6 -1 10 4 10 6 0 11 -4 11 -8 0 -16 52
-34 64 -22 8 8 7 10 -4 5 -9 -3 -24 0 -33 8 -17 12 -17 13 2 13 11 0 17 -5 14
-10 -4 -5 1 -7 11 -3 13 5 19 1 23 -13 4 -15 9 -17 23 -10 12 6 23 5 36 -5 24
-18 38 -19 28 -2 -4 6 6 0 23 -15 33 -32 48 -35 57 -12 5 14 4 15 -9 4 -12
-10 -18 -10 -30 0 -8 7 -15 18 -15 24 0 7 4 6 9 -2 4 -8 17 -13 27 -11 23 3
56 -10 50 -20 -3 -4 32 -6 76 -6 67 0 82 4 94 20 10 13 14 15 14 4 0 -12 2
-12 10 1 9 14 15 6 10 -15 -1 -5 11 1 26 15 15 14 24 20 21 14 -3 -6 1 -11 9
-11 8 0 13 6 10 13 -3 8 0 16 6 20 6 4 9 3 6 -2 -3 -5 1 -16 10 -24 14 -13 15
-12 9 3 -6 15 -4 16 14 6 19 -10 20 -9 9 13 -10 19 -10 21 0 11 11 -10 16 -9
27 5 14 16 14 16 8 -2 -6 -20 -6 -20 16 0 11 10 30 19 41 19 11 0 26 11 34 25
l15 25 -5 -25 -5 -25 18 22 c10 12 22 19 26 15 5 -4 6 0 2 9 -4 13 -1 16 15
11 16 -4 19 -2 13 8 -6 10 -4 12 9 7 14 -5 17 -3 12 8 -3 8 -1 15 4 15 6 0 10
-6 10 -12 0 -9 4 -8 10 2 5 8 10 11 10 6 0 -5 9 -1 20 9 11 10 20 24 20 32 0
8 5 11 10 8 6 -3 10 1 10 9 0 9 5 16 11 16 5 0 7 -6 3 -12 -5 -9 -3 -9 9 1 9
7 14 17 11 22 -3 5 0 9 6 9 6 0 8 5 4 12 -5 8 -2 9 11 4 15 -5 16 -4 5 9 -11
13 -10 14 5 9 13 -5 16 -4 11 4 -4 7 -2 12 4 12 7 0 9 7 5 18 -5 14 -4 15 6 5
17 -17 26 -16 26 2 0 8 -5 12 -11 9 -6 -3 -1 3 12 14 12 11 22 25 22 32 0 6 5
8 10 5 6 -3 10 -1 10 6 0 7 10 23 22 36 19 20 20 25 8 33 -13 9 -7 14 12 11 4
0 5 6 2 14 -4 8 -2 15 4 15 6 0 13 -6 15 -12 4 -10 6 -10 6 -1 1 6 -4 15 -10
19 -8 4 -3 12 12 21 13 8 17 12 7 9 -20 -6 -18 15 4 37 9 10 14 25 11 37 -4
15 0 20 13 20 15 0 16 2 5 9 -9 6 -10 10 -2 16 7 4 8 12 4 18 -7 11 -9 33 -3
47 1 3 3 15 6 28 3 17 0 21 -8 16 -7 -4 -5 1 4 12 21 24 23 35 6 45 -10 7 -10
9 0 9 7 0 11 4 7 9 -3 5 -1 12 4 15 5 3 7 -8 6 -24 -1 -17 0 -32 4 -34 4 -3 6
31 6 74 0 43 -4 76 -8 73 -5 -3 -8 1 -6 8 3 24 -1 39 -9 36 -8 -2 -12 6 -12
24 0 8 4 8 14 0 11 -9 16 -9 22 0 4 7 3 9 -3 6 -5 -3 -17 3 -26 14 -11 13 -13
19 -4 19 8 0 7 4 -3 10 -11 7 -11 10 -2 10 8 0 5 8 -8 22 -13 15 -17 25 -10
32 12 12 13 29 2 22 -4 -2 -14 -1 -22 5 -13 7 -12 9 2 9 17 0 19 23 3 37 -4 4
-5 2 0 -6 5 -9 4 -12 -3 -7 -16 10 -15 39 1 31 6 -4 -1 6 -18 20 -16 15 -24
24 -17 20 10 -5 10 -1 1 19 -7 14 -17 23 -23 20 -6 -3 -2 2 9 11 20 17 20 17
-3 10 -20 -6 -23 -4 -20 17 2 14 -2 22 -9 21 -7 -2 -13 3 -13 10 0 7 -9 19
-20 27 -11 8 -20 22 -20 32 0 10 -5 18 -11 18 -5 0 -7 -6 -3 -12 5 -10 3 -10
-7 0 -8 7 -15 17 -15 23 -1 5 -2 14 -3 20 -1 8 -6 8 -16 -1 -13 -11 -14 -10
-9 5 8 21 -13 36 -41 30 -11 -3 -14 -2 -7 1 15 7 16 34 1 34 -5 0 -8 4 -5 9 3
4 -6 7 -19 5 -26 -2 -34 11 -12 19 6 3 0 6 -15 6 -15 1 -30 6 -33 11 -4 6 -11
7 -17 4 -7 -4 -8 -2 -4 5 6 9 12 9 24 -1 12 -9 11 -6 -2 10 -15 17 -22 19 -33
11 -10 -9 -13 -8 -13 6 0 13 -6 16 -21 12 -17 -5 -18 -3 -7 11 7 9 9 14 4 10
-5 -4 -18 -2 -30 4 -18 9 -19 9 -11 -3 6 -8 -1 -2 -15 14 -21 23 -28 26 -39
15 -10 -10 -12 -10 -7 0 5 7 1 12 -9 12 -9 0 -14 -4 -11 -9 4 -5 -1 -8 -10 -7
-9 1 -23 13 -31 27 -8 13 -12 16 -9 7 3 -10 1 -18 -4 -18 -5 0 -10 8 -12 17
-2 11 -13 18 -30 18 -17 1 -25 -2 -21 -9 4 -6 -1 -5 -10 3 -14 11 -17 11 -17
0 -1 -10 -4 -8 -11 4 -5 9 -7 22 -3 29 5 7 3 8 -5 3 -7 -4 -10 -16 -8 -27 4
-15 3 -17 -8 -8 -8 7 -19 9 -26 5 -8 -5 -9 0 -4 16 7 22 6 23 -7 6 -10 -14
-23 -17 -45 -14 -18 3 -34 2 -37 -1 -11 -10 -54 -8 -49 3 2 6 19 11 39 10 19
-1 32 0 29 4 -9 8 -84 8 -79 0z m284 -41 c0 -4 -4 -8 -9 -8 -6 0 -12 4 -15 8
-3 5 1 9 9 9 8 0 15 -4 15 -9z m128 -53 c-3 -3 -9 2 -12 12 -6 14 -5 15 5 6 7
-7 10 -15 7 -18z m-985 -190 c-3 -9 -8 -14 -10 -11 -3 3 -2 9 2 15 9 16 15 13
8 -4z m1370 -140 c-3 -9 -8 -14 -10 -11 -3 3 -2 9 2 15 9 16 15 13 8 -4z m142
-433 c2 -24 -1 -29 -13 -24 -11 4 -13 2 -7 -8 6 -9 4 -11 -5 -5 -10 6 -9 11 6
22 10 8 17 17 16 21 -2 4 -9 16 -14 27 -8 16 -8 18 2 8 7 -6 13 -25 15 -41z
m-1755 -57 c0 -8 -4 -15 -8 -15 -5 0 -9 7 -9 15 0 8 4 15 9 15 4 0 8 -7 8 -15z
m1 -48 c-10 -9 -11 -8 -5 6 3 10 9 15 12 12 3 -3 0 -11 -7 -18z m1649 -351 c0
-3 -4 -8 -10 -11 -5 -3 -10 -1 -10 4 0 6 5 11 10 11 6 0 10 -2 10 -4z m-230
-271 c-7 -9 -15 -13 -17 -11 -7 7 7 26 19 26 6 0 6 -6 -2 -15z m-976 -71 c3
-8 2 -12 -4 -9 -6 3 -10 10 -10 16 0 14 7 11 14 -7z m530 -113 c-2 -3 -13 -5
-24 -6 -11 -1 -18 1 -15 3 3 3 -3 11 -13 18 -14 10 -10 10 20 1 20 -6 35 -14
32 -16z m-79 5 c7 3 16 1 20 -5 9 -15 -32 -8 -45 7 -7 8 -7 9 1 3 6 -5 17 -7
24 -5z m-41 -4 c3 -5 -1 -9 -9 -9 -8 0 -15 4 -15 9 0 10 17 10 24 0z"/>
<path d="M946 1788 c3 -4 9 -8 15 -8 5 0 9 4 9 8 0 5 -7 9 -15 9 -8 0 -12 -4
-9 -9z"/>
<path d="M776 1778 c3 -5 10 -6 15 -3 13 9 11 12 -6 12 -8 0 -12 -4 -9 -9z"/>
<path d="M642 1759 c2 -8 -3 -13 -10 -11 -8 1 -11 -2 -7 -8 5 -8 12 -7 22 2 9
7 17 11 19 8 1 -3 6 0 11 5 4 6 4 7 -1 3 -5 -4 -15 -3 -23 4 -11 9 -13 8 -11
-3z"/>
<path d="M1176 1735 c4 -8 8 -15 10 -15 2 0 4 7 4 15 0 8 -4 15 -10 15 -5 0
-7 -7 -4 -15z"/>
<path d="M1745 1140 c4 -6 11 -8 16 -5 14 9 11 15 -7 15 -8 0 -12 -5 -9 -10z"/>
<path d="M1775 788 c1 -13 -2 -29 -8 -36 -7 -9 -6 -11 5 -7 15 6 23 65 9 65
-4 0 -7 -10 -6 -22z"/>
<path d="M185 360 c3 -5 8 -10 11 -10 2 0 4 5 4 10 0 6 -5 10 -11 10 -5 0 -7
-4 -4 -10z"/>
<path d="M1235 80 c-3 -5 -1 -10 4 -10 6 0 11 5 11 10 0 6 -2 10 -4 10 -3 0
-8 -4 -11 -10z"/>
<path d="M676 42 c-3 -4 4 -9 15 -9 23 -2 25 3 4 10 -8 4 -16 3 -19 -1z"/>
</g>
</svg>
