<svg xmlns="http://www.w3.org/2000/svg">
    <defs>
        <symbol id="todo" viewBox="0 0 24 24"><g class="nc-icon-wrapper"><path fill="currentColor" d="M22,0H2C1.447,0,1,0.448,1,1v22c0,0.552,0.447,1,1,1h20c0.553,0,1-0.448,1-1V1C23,0.448,22.553,0,22,0z M20,21H4V3h3v3h3c0-1.105,0.895-2,2-2s2,0.895,2,2h3V3h3V21z" stroke="none"></path> <path d="M11,17c-0.256,0-0.512-0.098-0.707-0.293L7.586,14L9,12.586l2,2l4-4L16.414,12l-4.707,4.707 C11.512,16.902,11.256,17,11,17z" fill="currentColor" stroke="none"></path></g></symbol>
        <symbol id="code" viewBox="0 0 24 24"><g class="nc-icon-wrapper"><path fill="currentColor" d="M6,17.414l-4.707-4.707c-0.391-0.391-0.391-1.023,0-1.414L6,6.586L7.414,8l-4,4l4,4L6,17.414z" stroke="none"></path> <path fill="currentColor" d="M18,17.414L16.586,16l4-4l-4-4L18,6.586l4.707,4.707c0.391,0.391,0.391,1.023,0,1.414L18,17.414z" stroke="none"></path> <rect x="2.754" y="11" transform="matrix(0.2427 -0.9701 0.9701 0.2427 -2.5532 20.7296)" width="18.493" height="2" fill="currentColor" stroke="none"></rect></g></symbol>
        <symbol id="spaceship" viewBox="0 0 24 24"><g class="nc-icon-wrapper"><path d="M23.58.424A1,1,0,0,0,22.819.13C8.791.862,3.609,13.358,3.559,13.484a1,1,0,0,0,.22,1.08l5.657,5.657a1,1,0,0,0,1.085.218c.125-.051,12.554-5.291,13.348-19.253A1,1,0,0,0,23.58.424Zm-8.166,10.99a2,2,0,1,1,0-2.828A2,2,0,0,1,15.414,11.414Z" fill="currentColor" stroke="none"></path> <path d="M1.113,18.844a2.844,2.844,0,1,1,4.022,4.022C4.024,23.977,0,24,0,24S0,19.954,1.113,18.844Z" fill="currentColor" stroke="none"></path> <path id="color-2" d="M10.357,2.341A8.911,8.911,0,0,0,2.522,4.825a9.084,9.084,0,0,0-1.384,1.8,1,1,0,0,0,.155,1.215l1.989,1.99A26.623,26.623,0,0,1,10.357,2.341Z" fill="currentColor" stroke="none"></path> <path id="color-3" d="M21.659,13.643a8.911,8.911,0,0,1-2.484,7.835,9.084,9.084,0,0,1-1.8,1.384,1,1,0,0,1-1.215-.155l-1.99-1.989A26.623,26.623,0,0,0,21.659,13.643Z" fill="currentColor" stroke="none"></path></g></symbol>
        <symbol id="logo" viewBox="0 0 100 245.68853462923755"><g transform="translate(-115.63253553302764 -42.78994260579158) scale(3.31268381930163)" id="containerlessSvgTemplate"><g fill="currentColor"><path d="M34.906 43.386c0 16.385 6.098 29.357 14.062 30.395v12.302a1 1 0 0 0 2 0V73.791c7.995-.978 14.125-13.977 14.125-30.404 0-17.086-6.63-30.47-15.094-30.47-8.463 0-15.093 13.384-15.093 30.469zm28.188 0c0 14.724-5.459 27.259-12.125 28.38V51.511l5.357-5.357a.999.999 0 1 0-1.414-1.414l-3.943 3.943V32.229a1 1 0 0 0-2 0v8.743l-4.151-4.151a.999.999 0 1 0-1.414 1.414l5.565 5.564v15.605l-4.151-4.151a.999.999 0 1 0-1.414 1.414l5.565 5.564v9.522c-6.637-1.188-12.062-13.691-12.062-28.369 0-15.432 5.996-28.47 13.093-28.47 7.097.003 13.094 13.04 13.094 28.472z"></path></g></g></symbol>
        <symbol id="camera-flash" viewBox="0 0 24 24"><g class="nc-icon-wrapper"><path fill="currentColor" d="M19.882,7.528C19.708,7.203,19.369,7,19,7h-4.674l1.636-5.725c0.086-0.302,0.026-0.626-0.163-0.877 S15.314,0,15,0H8C7.549,0,7.154,0.302,7.035,0.737l-3,11c-0.082,0.301-0.019,0.623,0.17,0.87C4.395,12.854,4.688,13,5,13h4.802 l-1.786,9.821c-0.085,0.466,0.169,0.928,0.609,1.106C8.748,23.977,8.875,24,9,24c0.327,0,0.643-0.16,0.833-0.445l10-15 C20.037,8.248,20.056,7.854,19.882,7.528z" stroke="none"></path></g></symbol>
        <symbol id="comment" viewBox="0 0 24 24"><g class="nc-icon-wrapper"><path fill="currentColor" d="M12,1C5.4,1,0,5.5,0,11s5.4,10,12,10c1,0,2-0.1,3-0.3l5.6,2.2c0.1,0,0.2,0.1,0.4,0.1c0.2,0,0.4-0.1,0.6-0.2 c0.3-0.2,0.4-0.6,0.4-0.9l-0.5-4.7c1.6-1.8,2.5-3.9,2.5-6.1C24,5.5,18.6,1,12,1z" stroke="none"></path></g></symbol>
        <symbol id="magnifier" viewBox="0 0 24 24"><g class="nc-icon-wrapper"><path d="M22.707,19.293l-4.875-4.875a9.022,9.022,0,1,0-3.414,3.414l4.875,4.875a1,1,0,0,0,1.414,0l2-2A1,1,0,0,0,22.707,19.293ZM3,10a7,7,0,1,1,7,7A7.008,7.008,0,0,1,3,10Z" fill="currentColor" stroke="none"></path></g></symbol>
        <symbol id="energy" viewBox="0 0 24 24"><g class="nc-icon-wrapper"><path d="M14.586,9.439S15.7,2.858,11.138,0A8.055,8.055,0,0,1,8.1,5.831C6.149,7.546,2.481,11.4,2.52,15.51A9.435,9.435,0,0,0,7.7,24a5.975,5.975,0,0,1,2.091-4.132,4.877,4.877,0,0,0,1.869-3.278,8.786,8.786,0,0,1,4.652,7.322v.02a8.827,8.827,0,0,0,5.137-7.659c.324-3.863-1.792-9.112-3.668-10.828A10.192,10.192,0,0,1,14.586,9.439Z" fill="currentColor" stroke="none"></path></g></symbol>
        <symbol id="plant-leaf" viewBox="0 0 24 24"><g class="nc-icon-wrapper"><path fill="currentColor" d="M22.7,1.3C22.5,1.1,22.2,1,21.8,1C21.4,1.1,10.7,2.9,6.3,7.3c-3.1,3.1-3.3,6.5-2.8,8.9L7.2,14 c0.5-0.3,1,0.4,0.6,0.8l-3.7,3.7l-0.7,0.7l-2.2,2.2c-0.4,0.4-0.4,1,0,1.4C1.5,22.9,1.7,23,2,23s0.5-0.1,0.7-0.3l2.8-2.8 c0.8,0.4,2.3,0.9,4.2,0.9c2.6,0,5-1,7-3C21.5,13,22.9,2.6,23,2.1C23,1.8,22.9,1.5,22.7,1.3z" stroke="none"></path></g></symbol>
        <symbol id="accessibility" viewBox="0 0 24 24"><g class="nc-icon-wrapper"><path d="M20.5 6c-2.61.7-5.67 1-8.5 1s-5.89-.3-8.5-1L3 8c1.86.5 4 .83 6 1v13h2v-6h2v6h2V9c2-.17 4.14-.5 6-1l-.5-2zM12 6c1.1 0 2-.9 2-2s-.9-2-2-2-2 .9-2 2 .9 2 2 2z" fill="currentColor" stroke="none"></path></g></symbol>
        <symbol id="world" viewBox="0 0 48 48"><g class="nc-icon-wrapper" stroke="none"><circle cx="24" cy="24" r="23" fill="#c2eff4"></circle><path d="M1,24A22.94,22.94,0,0,0,8.768,41.227L10.8,38.18s1.452-.419,1.765-.981c.98-1.764-.76-4.835-.76-4.835a9.959,9.959,0,0,0-.35-2.176c-.262-.653-2.091-1.548-2.091-1.548S7.6,25.765,7.6,24a2.63,2.63,0,0,1,2.483-2.743,4.286,4.286,0,0,0,2.81-2.026s2.222-.589,2.744-1.5-.587-4.175-.587-4.175a5.464,5.464,0,0,0-.022-2.62,4.95,4.95,0,0,0-1.646-1.981,10.868,10.868,0,0,0-2.56-3.8A22.966,22.966,0,0,0,1,24Z" fill="#49c549"></path><path d="M24,1c-.62,0-1.232.032-1.839.08-.2.619-1.231,2.208-.971,2.925s2.395,1.384,2.395,1.384S23.019,7.6,24,8.383s2.549-.261,3.136-.065.457,4.05.457,4.05,1.895,2.091,3.758,2.353,4.7-2.9,4.7-2.9a37.4,37.4,0,0,0,6.1-1.95A22.953,22.953,0,0,0,24,1Z" fill="#49c549"></path><path d="M40.858,25.5c.523,1.242-.982,4.412-2.222,5.031a8.422,8.422,0,0,0-3.22,2.568c-.458.719-1.059,3.684-2.561,4.272S27.79,41.313,25.9,40.79,24,35.761,25.307,33.735c.78-1.209-.131-3.855-.2-4.769S22.3,26.352,22.3,25.438c0-1.438,3.136-5.228,3.136-5.228s2.57-.849,3.354-.653a11.809,11.809,0,0,1,2.266,1.11,15.722,15.722,0,0,1,4.051.849l1.5,1.372S40.335,24.261,40.858,25.5Z" fill="#49c549"></path></g></symbol>
        <symbol id="moon" viewBox="0 0 24 24"><g class="nc-icon-wrapper"><path fill="currentColor" d="M21.4,13.7C20.6,13.9,19.8,14,19,14c-5,0-9-4-9-9c0-0.8,0.1-1.6,0.3-2.4c0.1-0.3,0-0.7-0.3-1 c-0.3-0.3-0.6-0.4-1-0.3C4.3,2.7,1,7.1,1,12c0,6.1,4.9,11,11,11c4.9,0,9.3-3.3,10.6-8.1c0.1-0.3,0-0.7-0.3-1 C22.1,13.7,21.7,13.6,21.4,13.7z" stroke="none"></path></g></symbol>
        <symbol id="sun" viewBox="0 0 24 24"><g class="nc-icon-wrapper"><rect fill="currentColor" y="11" width="3" height="2" stroke="none"></rect> <rect fill="currentColor" x="3.575" y="3.075" transform="matrix(0.7071 -0.7071 0.7071 0.7071 -1.8951 4.5752)" width="2" height="3" stroke="none"></rect> <rect fill="currentColor" x="11" width="2" height="3" stroke="none"></rect> <rect fill="currentColor" x="17.925" y="3.575" transform="matrix(0.7071 -0.7071 0.7071 0.7071 2.4542 15.0755)" width="3" height="2" stroke="none"></rect> <rect fill="currentColor" x="21" y="11" width="3" height="2" stroke="none"></rect> <rect fill="currentColor" x="18.425" y="17.925" transform="matrix(0.7071 -0.7071 0.7071 0.7071 -8.046 19.4248)" width="2" height="3" stroke="none"></rect> <rect fill="currentColor" x="11" y="21" width="2" height="3" stroke="none"></rect> <rect fill="currentColor" x="3.075" y="18.425" transform="matrix(0.7071 -0.7071 0.7071 0.7071 -12.3954 8.9245)" width="3" height="2" stroke="none"></rect> <circle fill="currentColor" cx="12" cy="12" r="7" stroke="none"></circle></g></symbol>
        <symbol id="logo-behance" viewBox="0 0 32 32"><g class="nc-icon-wrapper"><path fill="currentColor" d="M12.91448,14.92739c0,0,3.02816-0.22496,3.02816-3.77614c0-3.55126-2.47759-5.28428-5.61587-5.28428H4.5502 H4.38049H0v19.84575h4.38049H4.5502h5.77656c0,0,6.3041,0.19871,6.3041-5.85762 C16.63087,19.85509,16.90612,14.92739,12.91448,14.92739z M4.5502,9.39409h5.03325h0.74332c0,0,1.40394,0,1.40394,2.06468 s-0.82588,2.36405-1.76182,2.36405H4.5502V9.39409z M10.06052,22.18557H4.5502v-5.30362h5.77656 c0,0,2.09217-0.02748,2.09217,2.72531C12.41894,21.90255,10.88864,22.16254,10.06052,22.18557z" stroke="none"></path> <path fill="currentColor" d="M25.03876,10.91613c-7.63172,0-7.62482,7.62486-7.62482,7.62486s-0.52373,7.58641,7.62504,7.58641 c0,0,6.79079,0.38787,6.79079-5.27744H28.3373c0,0,0.11635,2.13395-3.18196,2.13395c0,0-3.49252,0.23359-3.49252-3.45314h10.28331 C31.94613,19.53078,33.07117,10.91613,25.03876,10.91613z M28.14303,16.88195h-6.51911c0,0,0.42687-3.05913,3.49247-3.05913 C28.18203,13.82282,28.14303,16.88195,28.14303,16.88195z" stroke="none"></path> <rect x="20.76946" y="7" width="8.18766" height="2" stroke="none"></rect></g></symbol>
        <symbol id="logo-github" viewBox="0 0 32 32"><g class="nc-icon-wrapper"><path fill-rule="evenodd" clip-rule="evenodd" fill="currentColor" d="M16,0.4c-8.8,0-16,7.2-16,16c0,7.1,4.6,13.1,10.9,15.2 c0.8,0.1,1.1-0.3,1.1-0.8c0-0.4,0-1.4,0-2.7c-4.5,1-5.4-2.1-5.4-2.1c-0.7-1.8-1.8-2.3-1.8-2.3c-1.5-1,0.1-1,0.1-1 c1.6,0.1,2.5,1.6,2.5,1.6c1.4,2.4,3.7,1.7,4.7,1.3c0.1-1,0.6-1.7,1-2.1c-3.6-0.4-7.3-1.8-7.3-7.9c0-1.7,0.6-3.2,1.6-4.3 c-0.2-0.4-0.7-2,0.2-4.2c0,0,1.3-0.4,4.4,1.6c1.3-0.4,2.6-0.5,4-0.5c1.4,0,2.7,0.2,4,0.5C23.1,6.6,24.4,7,24.4,7 c0.9,2.2,0.3,3.8,0.2,4.2c1,1.1,1.6,2.5,1.6,4.3c0,6.1-3.7,7.5-7.3,7.9c0.6,0.5,1.1,1.5,1.1,3c0,2.1,0,3.9,0,4.4 c0,0.4,0.3,0.9,1.1,0.8C27.4,29.5,32,23.5,32,16.4C32,7.6,24.8,0.4,16,0.4z" stroke="none"></path></g></symbol>
        <symbol id="logo-product-hunt" viewBox="0 0 32 32"><g class="nc-icon-wrapper"><path fill="currentColor" d="M18.1,11.2L18.1,11.2l-4.5,0V16h4.5v0c1.3,0,2.4-1.1,2.4-2.4C20.5,12.3,19.5,11.2,18.1,11.2z" stroke="none"></path> <path fill="currentColor" d="M16,0C7.2,0,0,7.2,0,16s7.2,16,16,16s16-7.2,16-16S24.8,0,16,0z M18.1,19.2L18.1,19.2l-4.5,0V24h-3.2V8 l7.7,0v0c3.1,0,5.6,2.5,5.6,5.6C23.7,16.7,21.2,19.2,18.1,19.2z" stroke="none"></path></g></symbol>
        <symbol id="logo-youtube" viewBox="0 0 32 32"><g class="nc-icon-wrapper"><path fill="currentColor" d="M31.7,9.6c0,0-0.3-2.2-1.3-3.2c-1.2-1.3-2.6-1.3-3.2-1.4C22.7,4.7,16,4.7,16,4.7h0c0,0-6.7,0-11.2,0.3 c-0.6,0.1-2,0.1-3.2,1.4c-1,1-1.3,3.2-1.3,3.2S0,12.2,0,14.8v2.4c0,2.6,0.3,5.2,0.3,5.2s0.3,2.2,1.3,3.2c1.2,1.3,2.8,1.2,3.5,1.4 C7.7,27.2,16,27.3,16,27.3s6.7,0,11.2-0.3c0.6-0.1,2-0.1,3.2-1.4c1-1,1.3-3.2,1.3-3.2s0.3-2.6,0.3-5.2v-2.4 C32,12.2,31.7,9.6,31.7,9.6z M12.7,20.2l0-9l8.6,4.5L12.7,20.2z" stroke="none"></path></g></symbol>
        <symbol id="logo-dribbble" viewBox="0 0 32 32"><g class="nc-icon-wrapper"><path fill-rule="evenodd" clip-rule="evenodd" fill="currentColor" d="M16,32C7.2,32,0,24.8,0,16S7.2,0,16,0s16,7.2,16,16S24.8,32,16,32z M29.5,18.2C29,18,25.3,16.9,21,17.6c1.8,4.9,2.5,8.9,2.7,9.7C26.7,25.3,28.9,22,29.5,18.2z M21.3,28.6c-0.2-1.2-1-5.4-2.9-10.4 c0,0-0.1,0-0.1,0c-7.7,2.7-10.5,8-10.7,8.5c2.3,1.8,5.2,2.9,8.4,2.9C17.9,29.7,19.7,29.3,21.3,28.6z M5.8,25.2 c0.3-0.5,4.1-6.7,11.1-9c0.2-0.1,0.4-0.1,0.5-0.2c-0.3-0.8-0.7-1.6-1.1-2.3c-6.8,2-13.4,2-14,1.9c0,0.1,0,0.3,0,0.4 C2.3,19.5,3.7,22.7,5.8,25.2z M2.6,13.2c0.6,0,6.2,0,12.6-1.7c-2.3-4-4.7-7.4-5.1-7.9C6.4,5.5,3.5,9,2.6,13.2z M12.8,2.7 c0.4,0.5,2.9,3.9,5.1,8c4.9-1.8,6.9-4.6,7.2-4.9c-2.4-2.1-5.6-3.4-9.1-3.4C14.9,2.4,13.8,2.5,12.8,2.7z M26.6,7.4 c-0.3,0.4-2.6,3.3-7.6,5.4c0.3,0.7,0.6,1.3,0.9,2c0.1,0.2,0.2,0.5,0.3,0.7c4.5-0.6,9.1,0.3,9.5,0.4C29.6,12.7,28.5,9.7,26.6,7.4z" stroke="none"></path></g></symbol>
        <symbol id="tiktok" viewBox="0 0 32 32"><g class="nc-icon-wrapper"><path d="M13.586,11.917v5.5a4.784,4.784,0,0,0-6,4.431,4.324,4.324,0,0,0,4.623,4.589c3.416,0,4.623-2.4,4.623-4.651V0h5.438c.925,5.753,3.8,7.088,7.654,7.705v5.512s-4.572-.325-7.5-2.533V21.573C22.421,26.5,19.5,32,12.25,32,5.522,32,2.08,26.3,2.08,21.522A10.02,10.02,0,0,1,13.586,11.917Z" fill="currentColor" stroke="none"></path></g></symbol>
        <symbol id="logo-linkedin" viewBox="0 0 32 32"><g class="nc-icon-wrapper"><path d="M29,1H3A2,2,0,0,0,1,3V29a2,2,0,0,0,2,2H29a2,2,0,0,0,2-2V3A2,2,0,0,0,29,1ZM9.887,26.594H5.374V12.25H9.887ZM7.63,10.281a2.625,2.625,0,1,1,2.633-2.625A2.624,2.624,0,0,1,7.63,10.281ZM26.621,26.594H22.2V19.656c0-1.687,0-3.75-2.35-3.75s-2.633,1.782-2.633,3.656v7.126H12.8V12.25h4.136v1.969h.094a4.7,4.7,0,0,1,4.231-2.344c4.513,0,5.359,3,5.359,6.844Z" fill="currentColor" stroke="none"></path></g></symbol>
        <symbol id="logo-facebook" viewBox="0 0 32 32"><g class="nc-icon-wrapper"><path d="M32,16A16,16,0,1,0,13.5,31.806V20.625H9.438V16H13.5V12.475c0-4.01,2.389-6.225,6.043-6.225a24.644,24.644,0,0,1,3.582.312V10.5H21.107A2.312,2.312,0,0,0,18.5,13v3h4.438l-.71,4.625H18.5V31.806A16,16,0,0,0,32,16Z" fill="currentColor" stroke="none"></path></g></symbol>
        <symbol id="logo-twitter" viewBox="0 0 32 32"><g class="nc-icon-wrapper"><path fill="currentColor" d="M32,6.1c-1.2,0.5-2.4,0.9-3.8,1c1.4-0.8,2.4-2.1,2.9-3.6c-1.3,0.8-2.7,1.3-4.2,1.6C25.7,3.8,24,3,22.2,3 c-3.6,0-6.6,2.9-6.6,6.6c0,0.5,0.1,1,0.2,1.5C10.3,10.8,5.5,8.2,2.2,4.2c-0.6,1-0.9,2.1-0.9,3.3c0,2.3,1.2,4.3,2.9,5.5 c-1.1,0-2.1-0.3-3-0.8c0,0,0,0.1,0,0.1c0,3.2,2.3,5.8,5.3,6.4c-0.6,0.1-1.1,0.2-1.7,0.2c-0.4,0-0.8,0-1.2-0.1 c0.8,2.6,3.3,4.5,6.1,4.6c-2.2,1.8-5.1,2.8-8.2,2.8c-0.5,0-1.1,0-1.6-0.1C2.9,27.9,6.4,29,10.1,29c12.1,0,18.7-10,18.7-18.7 c0-0.3,0-0.6,0-0.8C30,8.5,31.1,7.4,32,6.1z" stroke="none"></path></g></symbol>
        <symbol id="arrow-right" viewBox="0 0 24 24"><g class="nc-icon-wrapper"><path d="M15.6,18.8l8-6a1.036,1.036,0,0,0,0-1.6l-8-6A1,1,0,0,0,14,6v5H1a1,1,0,0,0,0,2H14v5a1,1,0,0,0,1.6.8Z" fill="currentColor" stroke="none"></path></g></symbol>
        <symbol id="check" viewBox="0 0 24 24"><g class="nc-icon-wrapper"><path d="M7.793,20.293L1.207,13.707c-.391-.391-.391-1.024,0-1.414l1.586-1.586c.391-.391,1.024-.391,1.414,0l4.293,4.293L19.793,3.707c.391-.391,1.024-.391,1.414,0l1.586,1.586c.391,.391,.391,1.024,0,1.414l-13.586,13.586c-.391,.391-1.024,.391-1.414,0Z" fill="currentColor" stroke="none"></path></g></symbol>
        <symbol id="logo-upwork" viewBox="0 0 122.88 122.88"><g><path fill="transparent" d="M18.43,0h86.02c10.18,0,18.43,8.25,18.43,18.43v86.02c0,10.18-8.25,18.43-18.43,18.43H18.43 C8.25,122.88,0,114.63,0,104.45l0-86.02C0,8.25,8.25,0,18.43,0L18.43,0z"/><path fill="currentColor" d="M85.73,71.26c-4.08,0-7.92-1.73-11.38-4.54l0.84-3.98l0.02-0.14c0.77-4.22,3.14-11.33,10.51-11.33 c5.52,0,10.01,4.49,10.01,10.01C95.74,66.79,91.25,71.26,85.73,71.26L85.73,71.26L85.73,71.26z M85.73,41.14 c-9.41,0-16.68,6.1-19.66,16.15c-4.51-6.79-7.94-14.93-9.94-21.79H46.01v26.33c0,5.21-4.22,9.43-9.43,9.43 c-5.21,0-9.43-4.22-9.43-9.43V35.47h-10.1V61.8c0,10.78,8.76,19.63,19.54,19.63s19.54-8.86,19.54-19.63v-4.42 c1.97,4.1,4.37,8.26,7.3,11.9l-6.19,29.14h10.34l4.49-21.12c3.94,2.52,8.45,4.1,13.63,4.1c11.09,0,20.11-9.07,20.11-20.18 C105.82,50.16,96.82,41.14,85.73,41.14L85.73,41.14z"/></g></symbol>
    </defs>
</svg>